<svg width="163" height="25" viewBox="0 0 163 25" fill="none" xmlns="http://www.w3.org/2000/svg">
    <g clip-path="url(#clip0_59_119)">
    <path d="M24.5007 8.46829L17.5495 7.46171C17.2067 7.41065 16.9076 7.19912 16.7545 6.88548L13.6472 0.590718C13.2606 -0.189745 12.1446 -0.189745 11.758 0.590718L8.65078 6.88548C8.4976 7.19912 8.19855 7.41065 7.85573 7.46171L0.904501 8.46829C0.0365092 8.59229 -0.306311 9.65722 0.320977 10.2699L5.34658 15.1715C5.59457 15.4122 5.71128 15.7623 5.65293 16.1052L4.464 23.0272C4.31811 23.8879 5.22258 24.5444 5.99575 24.1359L12.2103 20.8682C12.5166 20.7077 12.8813 20.7077 13.195 20.8682L19.4095 24.1359C20.1827 24.5444 21.0871 23.8879 20.9412 23.0272L19.7523 16.1052C19.694 15.7623 19.8107 15.4122 20.0587 15.1715L25.0843 10.2699C25.7116 9.65722 25.3614 8.59958 24.5007 8.46829Z" fill="#121212"/>
    </g>
    <g clip-path="url(#clip1_59_119)">
    <path d="M58.7827 8.46829L51.8315 7.46171C51.4887 7.41065 51.1896 7.19912 51.0364 6.88548L47.9292 0.590718C47.5426 -0.189745 46.4266 -0.189745 46.04 0.590718L42.9328 6.88548C42.7796 7.19912 42.4805 7.41065 42.1377 7.46171L35.1865 8.46829C34.3185 8.59229 33.9757 9.65722 34.603 10.2699L39.6286 15.1715C39.8766 15.4122 39.9933 15.7623 39.9349 16.1052L38.746 23.0272C38.6001 23.8879 39.5046 24.5444 40.2777 24.1359L46.4923 20.8682C46.7986 20.7077 47.1633 20.7077 47.477 20.8682L53.6915 24.1359C54.4646 24.5444 55.3691 23.8879 55.2232 23.0272L54.0343 16.1052C53.9759 15.7623 54.0927 15.4122 54.3407 15.1715L59.3662 10.2699C59.9935 9.65722 59.6434 8.59958 58.7827 8.46829Z" fill="#121212"/>
    </g>
    <g clip-path="url(#clip2_59_119)">
    <path d="M93.0647 8.46829L86.1135 7.46171C85.7707 7.41065 85.4716 7.19912 85.3184 6.88548L82.2112 0.590718C81.8246 -0.189745 80.7086 -0.189745 80.322 0.590718L77.2147 6.88548C77.0616 7.19912 76.7625 7.41065 76.4197 7.46171L69.4685 8.46829C68.6005 8.59229 68.2577 9.65722 68.8849 10.2699L73.9105 15.1715C74.1585 15.4122 74.2752 15.7623 74.2169 16.1052L73.028 23.0272C72.8821 23.8879 73.7865 24.5444 74.5597 24.1359L80.7742 20.8682C81.0806 20.7077 81.4453 20.7077 81.7589 20.8682L87.9735 24.1359C88.7466 24.5444 89.6511 23.8879 89.5052 23.0272L88.3163 16.1052C88.2579 15.7623 88.3746 15.4122 88.6226 15.1715L93.6482 10.2699C94.2755 9.65722 93.9254 8.59958 93.0647 8.46829Z" fill="#121212"/>
    </g>
    <g clip-path="url(#clip3_59_119)">
    <path d="M127.347 8.46829L120.395 7.46171C120.053 7.41065 119.754 7.19912 119.6 6.88548L116.493 0.590718C116.107 -0.189745 114.991 -0.189745 114.604 0.590718L111.497 6.88548C111.344 7.19912 111.044 7.41065 110.702 7.46171L103.75 8.46829C102.882 8.59229 102.54 9.65722 103.167 10.2699L108.193 15.1715C108.441 15.4122 108.557 15.7623 108.499 16.1052L107.31 23.0272C107.164 23.8879 108.069 24.5444 108.842 24.1359L115.056 20.8682C115.363 20.7077 115.727 20.7077 116.041 20.8682L122.255 24.1359C123.029 24.5444 123.933 23.8879 123.787 23.0272L122.598 16.1052C122.54 15.7623 122.657 15.4122 122.905 15.1715L127.93 10.2699C128.558 9.65722 128.207 8.59958 127.347 8.46829Z" fill="#121212"/>
    </g>
    <g clip-path="url(#clip4_59_119)">
    <path d="M161.629 8.46829L154.678 7.46171C154.335 7.41065 154.036 7.19912 153.883 6.88548L150.775 0.590718C150.389 -0.189745 149.273 -0.189745 148.886 0.590718L145.779 6.88548C145.626 7.19912 145.327 7.41065 144.984 7.46171L138.033 8.46829C137.165 8.59229 136.822 9.65722 137.449 10.2699L142.475 15.1715C142.723 15.4122 142.839 15.7623 142.781 16.1052L141.592 23.0272C141.446 23.8879 142.351 24.5444 143.124 24.1359L149.338 20.8682C149.645 20.7077 150.009 20.7077 150.323 20.8682L156.538 24.1359C157.311 24.5444 158.215 23.8879 158.069 23.0272L156.88 16.1052C156.822 15.7623 156.939 15.4122 157.187 15.1715L162.212 10.2699C162.84 9.65722 162.49 8.59958 161.629 8.46829Z" fill="#121212"/>
    </g>
    <defs>
    <clipPath id="clip0_59_119">
    <rect width="25.4052" height="24.26" fill="white"/>
    </clipPath>
    <clipPath id="clip1_59_119">
    <rect width="25.4052" height="24.26" fill="white" transform="translate(34.282)"/>
    </clipPath>
    <clipPath id="clip2_59_119">
    <rect width="25.4052" height="24.26" fill="white" transform="translate(68.564)"/>
    </clipPath>
    <clipPath id="clip3_59_119">
    <rect width="25.4052" height="24.26" fill="white" transform="translate(102.846)"/>
    </clipPath>
    <clipPath id="clip4_59_119">
    <rect width="25.4052" height="24.26" fill="white" transform="translate(137.128)"/>
    </clipPath>
    </defs>
</svg>